<svg width="24" height="24" viewBox="0 0 24 24" fill="none" xmlns="http://www.w3.org/2000/svg">
<path fill-rule="evenodd" clip-rule="evenodd" d="M1.00281 2.25C1.00281 1.83579 1.33859 1.5 1.75281 1.5H3.65409C4.40304 1.5 5.06896 1.97659 5.31055 2.68551L5.77887 4.05975H18.2524C20.8758 4.05975 23.0024 6.1864 23.0024 8.80975V12.9522C23.0024 15.5755 20.8758 17.7022 18.2524 17.7022H10.7685C8.46905 17.7022 6.4998 16.0551 6.09331 13.7918L4.51393 4.99807L3.89073 3.16936C3.85622 3.06808 3.76109 3 3.65409 3H1.75281C1.33859 3 1.00281 2.66421 1.00281 2.25ZM6.13881 5.55975L7.56969 13.5267C7.84781 15.0752 9.1952 16.2022 10.7685 16.2022H18.2524C20.0474 16.2022 21.5024 14.7471 21.5024 12.9522V8.80975C21.5024 7.01483 20.0474 5.55975 18.2524 5.55975H6.13881Z" fill="white"/>
<path fill-rule="evenodd" clip-rule="evenodd" d="M9.5 20.5C9.5 19.6716 10.1716 19 11 19H11.01C11.8384 19 12.51 19.6716 12.51 20.5C12.51 21.3284 11.8384 22 11.01 22H11C10.1716 22 9.5 21.3284 9.5 20.5Z" fill="white"/>
<path fill-rule="evenodd" clip-rule="evenodd" d="M17.5 20.5C17.5 19.6716 18.1716 19 19 19H19.01C19.8384 19 20.51 19.6716 20.51 20.5C20.51 21.3284 19.8384 22 19.01 22H19C18.1716 22 17.5 21.3284 17.5 20.5Z" fill="white"/>
</svg>
