<svg width="217" height="185" viewBox="0 0 217 185" fill="none" xmlns="http://www.w3.org/2000/svg">
<path d="M22.2727 124H19.1818L52.4545 30.9091H56.4545L89.7273 124H86.6364L54.6364 34.5454H54.2727L22.2727 124ZM32.8182 89.6364H76.0909V92.5455H32.8182V89.6364Z" fill="white"/>
<path d="M82.116 126.088L80.73 125.626C80.6273 125.934 80.3707 126.037 79.96 125.934C79.652 125.934 79.3953 125.831 79.19 125.626C78.6767 124.805 78.112 124.445 77.496 124.548C76.88 124.753 76.0587 124.651 75.032 124.24H74.878C74.57 124.24 74.2107 124.291 73.8 124.394C73.492 124.599 73.184 124.651 72.876 124.548L71.798 123.624C71.798 123.727 71.6953 123.778 71.49 123.778C71.182 123.778 70.874 123.727 70.566 123.624C70.258 123.521 70.1553 123.419 70.258 123.316L67.64 121.93L67.332 122.084L65.638 120.236C65.5353 120.339 65.4327 120.39 65.33 120.39C65.1247 120.39 64.9193 120.236 64.714 119.928C64.5087 119.723 64.3547 119.62 64.252 119.62C63.636 119.107 62.9173 118.593 62.096 118.08C61.3773 117.669 60.6587 117.207 59.94 116.694C59.8373 116.591 59.786 116.386 59.786 116.078C59.786 115.873 59.6833 115.719 59.478 115.616C59.17 115.308 58.8107 115 58.4 114.692C57.9893 114.384 57.7327 114.025 57.63 113.614L57.014 113.768C56.398 112.639 55.6793 111.612 54.858 110.688C54.0367 109.764 53.6773 108.532 53.78 106.992H53.472L51.47 106.222V105.76C51.3673 105.76 51.2133 105.811 51.008 105.914C50.8027 105.914 50.546 105.863 50.238 105.76C49.5193 105.452 48.852 105.093 48.236 104.682C47.62 104.169 47.158 103.553 46.85 102.834C46.7473 102.526 46.5933 102.372 46.388 102.372C46.2853 102.372 46.1827 102.321 46.08 102.218C45.8747 101.705 45.5667 101.243 45.156 100.832C44.7453 100.421 44.5913 99.908 44.694 99.292L45.156 95.442C45.9773 94.518 46.5933 94.056 47.004 94.056C47.4147 94.056 47.62 94.518 47.62 95.442L46.696 96.982L46.85 98.83C47.0553 99.0353 47.3633 99.138 47.774 99.138C48.1847 99.138 48.4927 99.0867 48.698 98.984L48.544 99.908L49.16 100.986L49.314 100.678L50.238 100.986L51.008 102.064C51.2133 101.653 51.4187 101.653 51.624 102.064C51.8293 102.372 51.932 102.526 51.932 102.526L52.702 101.91C52.5993 101.397 52.4967 100.883 52.394 100.37C52.2913 99.754 52.24 99.1893 52.24 98.676C52.24 97.9573 52.2913 97.444 52.394 97.136C52.702 96.0067 52.8047 95.134 52.702 94.518C52.702 94.518 52.9073 94.1587 53.318 93.44C53.7287 92.6187 54.1393 92.1053 54.55 91.9L55.782 91.13L56.09 91.592C55.9873 91.6947 55.782 92.0027 55.474 92.516C55.166 93.0293 54.9093 93.3887 54.704 93.594C53.8827 95.3393 53.5747 97.0847 53.78 98.83C53.78 98.9327 53.78 99.0867 53.78 99.292C53.8827 99.3947 53.8827 99.6 53.78 99.908V102.064C53.9853 102.167 54.088 102.577 54.088 103.296C54.088 103.912 54.1907 104.169 54.396 104.066C54.9093 103.963 55.32 104.117 55.628 104.528C56.0387 104.836 56.3467 104.682 56.552 104.066L57.63 105.298H59.17C59.0673 105.503 59.324 105.709 59.94 105.914C60.6587 106.017 61.3773 106.068 62.096 106.068C62.8147 106.068 63.174 106.068 63.174 106.068L64.098 106.838C64.098 106.735 64.252 106.838 64.56 107.146H64.714C65.022 107.146 65.33 107.043 65.638 106.838C66.0487 106.633 66.3567 106.53 66.562 106.53C67.0753 106.633 67.5887 106.838 68.102 107.146C68.718 107.454 69.18 107.454 69.488 107.146L70.72 107.608L72.106 106.838C72.3113 107.043 72.722 107.249 73.338 107.454C73.5433 107.557 73.8513 107.608 74.262 107.608C75.186 107.608 75.8533 107.403 76.264 106.992L76.88 107.762C78.3173 107.659 79.7547 107.659 81.192 107.762C82.732 107.762 84.1693 107.762 85.504 107.762C86.6333 107.762 87.7113 107.762 88.738 107.762C89.8673 107.659 90.9453 107.557 91.972 107.454C92.28 107.454 92.5367 107.454 92.742 107.454C92.9473 107.351 93.1013 107.3 93.204 107.3C93.9227 107.3 94.744 107.095 95.668 106.684C96.592 106.273 97.362 106.068 97.978 106.068C98.1833 106.068 98.6453 105.914 99.364 105.606C100.185 105.195 100.442 105.452 100.134 106.376L98.594 107.146L98.132 106.992C98.0293 107.095 97.5673 107.351 96.746 107.762C96.0273 108.07 95.6167 108.121 95.514 107.916L92.28 108.378C91.8693 108.481 91.2533 108.583 90.432 108.686C89.6107 108.789 89.2 108.789 89.2 108.686L87.814 108.994C87.814 108.891 87.7113 108.84 87.506 108.84C87.0953 108.84 86.4793 108.994 85.658 109.302C84.9393 109.61 84.5287 109.713 84.426 109.61C84.3233 109.405 83.81 109.405 82.886 109.61C82.0647 109.713 81.2433 109.764 80.422 109.764C79.19 109.764 78.5227 109.559 78.42 109.148L77.188 109.61C77.3933 109.405 77.2907 109.302 76.88 109.302C76.572 109.199 76.3153 109.199 76.11 109.302L75.956 110.072C75.7507 110.175 75.5453 110.175 75.34 110.072C75.1347 109.969 74.9293 109.867 74.724 109.764C74.108 109.456 73.1327 109.302 71.798 109.302C70.4633 109.302 69.18 109.251 67.948 109.148C66.716 109.045 65.946 108.789 65.638 108.378L64.406 108.994C63.9953 108.994 63.3793 108.943 62.558 108.84C61.8393 108.635 61.2747 108.481 60.864 108.378C60.1453 108.173 59.324 107.967 58.4 107.762C57.5787 107.557 56.7573 107.505 55.936 107.608L56.706 108.84V109.148C57.4247 109.559 57.9893 110.226 58.4 111.15C58.9133 111.971 59.6833 112.279 60.71 112.074L61.172 114.076L62.404 114.846C62.5067 114.743 62.6093 114.692 62.712 114.692C63.02 114.692 63.5333 114.897 64.252 115.308C64.9707 115.719 65.5353 116.027 65.946 116.232L66.408 115.924L67.178 117.31C67.2807 117.207 67.3833 117.156 67.486 117.156C67.794 117.156 68.1533 117.259 68.564 117.464C68.9747 117.669 69.2313 117.721 69.334 117.618L70.412 117.926L71.49 117.618C71.9007 118.234 72.1573 118.696 72.26 119.004C72.3627 119.312 72.5167 119.517 72.722 119.62C73.2353 119.825 73.2353 119.979 72.722 120.082C72.3113 120.185 72.106 120.339 72.106 120.544L72.26 120.852H73.646C73.646 120.544 74.0053 120.287 74.724 120.082C75.5453 119.979 76.3667 119.928 77.188 119.928C78.42 119.928 79.1387 120.031 79.344 120.236C79.7547 120.441 79.8573 120.441 79.652 120.236L81.038 120.082L81.962 120.852C82.1673 120.544 82.3727 120.39 82.578 120.39C82.886 120.39 83.1427 120.441 83.348 120.544C83.656 120.749 83.81 120.852 83.81 120.852C84.0153 120.955 84.2207 120.749 84.426 120.236C84.734 119.825 85.0933 119.671 85.504 119.774L86.12 119.928C86.8387 119.928 87.5573 119.825 88.276 119.62C89.0973 119.415 89.5593 119.62 89.662 120.236L90.74 119.466L91.51 119.62L91.202 120.852C91.202 121.263 91.2533 121.468 91.356 121.468C91.5613 121.468 91.818 121.109 92.126 120.39C92.5367 119.774 92.742 119.723 92.742 120.236L93.82 119.004C94.128 119.209 94.5387 119.312 95.052 119.312C95.8733 119.312 96.6433 119.004 97.362 118.388C98.0807 117.875 98.9533 117.515 99.98 117.31L100.134 117.618C100.339 117.515 100.545 117.413 100.75 117.31C101.058 117.31 101.212 117.413 101.212 117.618L102.906 117.464C103.317 117.156 103.984 116.797 104.908 116.386C105.935 115.975 106.653 115.667 107.064 115.462L107.218 114.846C107.218 114.846 107.475 114.846 107.988 114.846C108.604 114.743 108.963 114.641 109.066 114.538V114.384C109.066 114.179 109.066 113.871 109.066 113.46C109.066 112.947 109.271 112.741 109.682 112.844L110.452 113.306C111.376 112.998 111.992 112.587 112.3 112.074C112.711 111.458 113.327 110.893 114.148 110.38C114.456 110.175 114.713 109.918 114.918 109.61C115.226 109.302 115.585 109.097 115.996 108.994C116.099 108.994 116.253 109.148 116.458 109.456C116.766 109.764 117.074 109.713 117.382 109.302L117.536 107.762L118.922 107.3L119.692 106.222C119.692 106.222 119.692 106.273 119.692 106.376C119.795 106.376 119.897 106.376 120 106.376C120.411 106.376 120.873 105.965 121.386 105.144C121.899 104.323 122.002 103.758 121.694 103.45L123.234 101.756C123.131 101.14 123.337 100.37 123.85 99.446C124.466 98.522 124.774 97.3927 124.774 96.058C124.774 95.2367 124.517 94.2613 124.004 93.132C123.491 92.0027 122.464 90.7707 120.924 89.436L120.154 88.974C118.922 88.1527 117.793 87.5367 116.766 87.126C115.842 86.6127 114.61 86.0993 113.07 85.586C113.07 85.586 112.916 85.4833 112.608 85.278L108.296 84.046C107.885 83.738 106.961 83.4813 105.524 83.276C104.087 83.0707 103.111 82.9167 102.598 82.814C102.393 82.7113 102.136 82.5573 101.828 82.352C101.623 82.1467 101.417 82.198 101.212 82.506L99.826 81.736C99.6207 81.8387 99.364 81.89 99.056 81.89C98.8507 81.89 98.6453 81.8387 98.44 81.736C98.3373 81.6333 98.0293 81.582 97.516 81.582C96.7973 81.4793 95.6167 81.1713 93.974 80.658C92.434 80.1447 91.5613 79.9907 91.356 80.196L87.352 78.194L86.89 78.348L85.504 77.578C85.812 77.9887 85.6067 78.0913 84.888 77.886C84.1693 77.578 83.348 77.2187 82.424 76.808C81.5 76.2947 80.7813 75.9867 80.268 75.884C78.5227 75.1653 76.9313 74.1387 75.494 72.804C74.1593 71.4693 73.492 69.8267 73.492 67.876C73.492 66.1307 73.5947 64.8987 73.8 64.18C74.0053 63.4613 74.262 62.8453 74.57 62.332C74.9807 61.8187 75.34 61.0487 75.648 60.022C75.8533 59.714 76.11 59.406 76.418 59.098C76.8287 58.6873 77.0853 58.2767 77.188 57.866L78.42 57.096C78.5227 56.5827 78.7793 56.0693 79.19 55.556C79.7033 55.0427 80.1653 54.6833 80.576 54.478C81.9107 53.862 83.3993 52.8353 85.042 51.398C86.7873 49.858 88.4813 48.7287 90.124 48.01C90.5347 47.8047 90.894 47.6507 91.202 47.548C91.51 47.3427 91.8693 47.1887 92.28 47.086L92.434 47.394C93.358 47.086 94.898 46.624 97.054 46.008C99.21 45.2893 101.571 44.5707 104.138 43.852C106.807 43.1333 109.271 42.5173 111.53 42.004C113.891 41.4907 115.739 41.234 117.074 41.234C117.998 41.234 118.511 41.388 118.614 41.696L120.462 40.618C120.565 40.7207 120.77 40.8233 121.078 40.926C121.386 40.926 121.591 40.8747 121.694 40.772L123.234 41.234C123.645 41.0287 123.953 40.926 124.158 40.926C124.774 40.926 125.441 41.1313 126.16 41.542C126.981 41.85 127.597 41.9527 128.008 41.85C128.521 41.6447 128.881 41.5933 129.086 41.696C129.394 41.696 129.702 41.696 130.01 41.696H130.626C130.934 41.696 131.242 41.7473 131.55 41.85C131.961 41.85 132.371 42.0553 132.782 42.466L133.552 42.62C133.86 42.928 134.014 43.2873 134.014 43.698C134.219 44.1087 134.835 44.3653 135.862 44.468C136.889 44.5707 137.556 44.776 137.864 45.084C138.685 45.7 139.147 46.7267 139.25 48.164C139.455 49.4987 139.558 50.7307 139.558 51.86C139.455 52.9893 138.993 54.3753 138.172 56.018C137.453 57.558 136.529 58.79 135.4 59.714C134.887 60.1247 134.117 60.5867 133.09 61.1C132.063 61.5107 131.293 61.87 130.78 62.178C129.651 62.8967 128.419 63.256 127.084 63.256C125.133 63.256 124.158 62.8453 124.158 62.024C124.158 61.716 124.517 61.408 125.236 61.1C125.749 60.8947 126.211 60.6893 126.622 60.484C127.135 60.176 127.597 59.8167 128.008 59.406C128.419 59.2007 128.675 59.098 128.778 59.098C128.983 58.9953 129.137 58.8927 129.24 58.79C129.445 58.6873 129.599 58.5847 129.702 58.482C129.805 58.2767 130.01 58.0713 130.318 57.866C130.934 57.3527 131.704 56.5313 132.628 55.402C133.655 54.17 134.373 53.246 134.784 52.63C134.887 52.1167 135.092 51.4493 135.4 50.628C135.811 49.704 136.016 48.8827 136.016 48.164C136.016 47.548 135.862 47.086 135.554 46.778C135.451 46.778 135.4 46.7267 135.4 46.624L135.246 46.316C134.425 44.5707 132.782 43.5953 130.318 43.39C127.957 43.082 125.955 42.928 124.312 42.928C124.312 42.928 124.209 42.8767 124.004 42.774C123.799 42.6713 123.696 42.7227 123.696 42.928L120.308 43.236L120 42.928L116.766 43.544L116.458 43.39L113.07 44.314C113.173 44.1087 113.121 44.0573 112.916 44.16C112.711 44.16 112.608 44.16 112.608 44.16L109.22 45.084L109.066 44.93L107.526 45.854C107.526 45.7513 107.475 45.6487 107.372 45.546C107.269 45.4433 107.218 45.392 107.218 45.392C107.115 45.4947 107.013 45.6487 106.91 45.854C106.807 45.9567 106.653 46.0593 106.448 46.162L106.14 46.008L103.984 46.778C103.984 46.8807 103.779 46.932 103.368 46.932C100.596 48.164 97.5673 49.6013 94.282 51.244C91.0993 52.784 88.6353 54.9913 86.89 57.866L86.582 57.558L85.196 58.79C85.0933 58.8927 84.9393 59.0467 84.734 59.252C84.6313 59.4573 84.4773 59.8167 84.272 60.33C83.964 61.1513 83.502 62.1267 82.886 63.256C82.3727 64.3853 82.116 65.4633 82.116 66.49C82.116 67.5167 82.3213 68.492 82.732 69.416C83.1427 70.2373 83.4507 70.4427 83.656 70.032L85.042 70.956L85.504 72.65L85.812 72.496L87.814 74.036H88.122L90.586 76.038L92.434 77.116H93.666L95.514 77.732C95.7193 77.8347 95.8733 77.9887 95.976 78.194C96.1813 78.2967 96.438 78.194 96.746 77.886L98.286 78.964C98.3887 78.8613 98.5427 78.81 98.748 78.81C98.9533 78.81 99.1587 78.9127 99.364 79.118C99.5693 79.2207 99.7233 79.3233 99.826 79.426L100.134 79.272L105.524 81.428C105.729 81.3253 105.986 81.274 106.294 81.274C106.807 81.274 107.218 81.3767 107.526 81.582C107.937 81.6847 108.347 81.7873 108.758 81.89C108.963 81.9927 109.22 82.1467 109.528 82.352C109.939 82.5573 110.144 82.7113 110.144 82.814C110.349 82.9167 110.555 82.968 110.76 82.968C111.068 82.968 111.325 82.968 111.53 82.968L112.916 83.43L114.302 84.2L115.688 84.354C115.688 84.354 116.099 84.5593 116.92 84.97C117.844 85.278 118.768 85.586 119.692 85.894C120.719 86.202 121.283 86.4073 121.386 86.51L122.31 87.434L122.464 87.28L123.542 87.896C124.671 88.6147 125.801 90.0007 126.93 92.054C128.162 94.0047 128.778 96.1607 128.778 98.522C128.778 100.062 128.521 101.602 128.008 103.142C127.597 104.579 127.084 105.76 126.468 106.684C124.928 108.737 123.234 110.585 121.386 112.228C119.641 113.871 118.049 115.257 116.612 116.386C116.099 116.694 115.739 116.951 115.534 117.156C115.329 117.361 115.021 117.464 114.61 117.464C114.302 117.567 114.045 117.721 113.84 117.926C112.403 118.747 110.811 119.466 109.066 120.082C107.321 120.801 105.781 121.468 104.446 122.084C103.83 122.289 103.317 122.392 102.906 122.392C102.495 122.495 102.085 122.597 101.674 122.7C101.571 122.7 101.366 122.751 101.058 122.854C100.853 123.059 100.75 123.111 100.75 123.008L99.672 123.778C99.5693 123.675 99.4153 123.624 99.21 123.624C98.7993 123.624 98.3373 123.829 97.824 124.24C97.4133 124.651 97.0027 124.805 96.592 124.702H96.438C96.13 124.702 95.7193 124.753 95.206 124.856C94.7953 125.061 94.4873 125.061 94.282 124.856L92.28 125.626L91.972 124.856C91.8693 124.856 91.7153 124.959 91.51 125.164C91.4073 125.472 91.2533 125.626 91.048 125.626C91.048 125.626 90.8427 125.523 90.432 125.318C90.0213 125.113 89.7133 125.215 89.508 125.626L87.814 126.088C87.7113 125.677 87.4033 125.472 86.89 125.472C86.4793 125.472 86.12 125.626 85.812 125.934L84.58 125.318V125.472L83.348 125.318L82.116 126.088Z" fill="white"/>
<path d="M23.6113 136.104C22.3806 136.104 21.3493 136.693 20.5173 137.872C19.7026 139.051 19.2953 140.68 19.2953 142.76C19.2953 144.84 19.668 146.383 20.4133 147.388C21.176 148.393 22.1726 148.896 23.4033 148.896C24.946 148.896 26.3153 148.636 27.5113 148.116L27.5893 148.298C26.3586 148.835 24.92 149.104 23.2733 149.104C21.6266 149.104 20.2573 148.584 19.1653 147.544C18.0733 146.504 17.5273 144.901 17.5273 142.734C17.5273 140.567 18.0993 138.886 19.2433 137.69C20.3873 136.494 21.8433 135.896 23.6113 135.896C24.5993 135.896 25.5093 136.121 26.3413 136.572C27.1906 137.023 27.8146 137.707 28.2133 138.626H26.5493C26.2893 137.777 25.8906 137.144 25.3533 136.728C24.8333 136.312 24.2526 136.104 23.6113 136.104ZM35.6991 149.104C33.8791 149.104 32.3971 148.584 31.2531 147.544C30.1091 146.504 29.5371 144.901 29.5371 142.734C29.5371 140.567 30.1264 138.886 31.3051 137.69C32.5011 136.494 34.0091 135.896 35.8291 135.896C37.6664 135.896 39.1571 136.416 40.3011 137.456C41.4451 138.496 42.0171 140.099 42.0171 142.266C42.0171 144.433 41.4191 146.114 40.2231 147.31C39.0444 148.506 37.5364 149.104 35.6991 149.104ZM35.8811 136.104C34.5637 136.104 33.4717 136.693 32.6051 137.872C31.7384 139.033 31.3051 140.663 31.3051 142.76C31.3051 144.84 31.7037 146.383 32.5011 147.388C33.2984 148.393 34.3557 148.896 35.6731 148.896C36.9904 148.896 38.0824 148.315 38.9491 147.154C39.8157 145.975 40.2491 144.346 40.2491 142.266C40.2491 140.169 39.8504 138.617 39.0531 137.612C38.2557 136.607 37.1984 136.104 35.8811 136.104ZM54.3681 149C53.6574 149 53.1114 148.844 52.7301 148.532C52.3661 148.22 52.1754 147.908 52.1581 147.596L52.1321 147.154V138.99C52.1321 137.621 51.7768 136.745 51.0661 136.364C50.7021 136.191 50.2514 136.104 49.7141 136.104C48.6048 136.104 47.6081 136.546 46.7241 137.43C45.8401 138.297 45.3981 139.077 45.3981 139.77V149H43.5781V136H45.3981V138.964C45.6928 138.219 46.2388 137.525 47.0361 136.884C47.8334 136.225 48.7088 135.896 49.6621 135.896C50.6154 135.896 51.3868 135.991 51.9761 136.182C52.5828 136.355 53.0248 136.607 53.3021 136.936C53.7354 137.473 53.9521 138.167 53.9521 139.016V147.154C53.9521 147.657 54.0474 148.047 54.2381 148.324C54.4461 148.584 54.6541 148.723 54.8621 148.74L55.1481 148.792H55.9541V149H54.3681ZM63.0937 136.104C61.8631 136.104 60.8317 136.693 59.9997 137.872C59.1851 139.051 58.7777 140.68 58.7777 142.76C58.7777 144.84 59.1504 146.383 59.8957 147.388C60.6584 148.393 61.6551 148.896 62.8857 148.896C64.4284 148.896 65.7977 148.636 66.9937 148.116L67.0717 148.298C65.8411 148.835 64.4024 149.104 62.7557 149.104C61.1091 149.104 59.7397 148.584 58.6477 147.544C57.5557 146.504 57.0097 144.901 57.0097 142.734C57.0097 140.567 57.5817 138.886 58.7257 137.69C59.8697 136.494 61.3257 135.896 63.0937 135.896C64.0817 135.896 64.9917 136.121 65.8237 136.572C66.6731 137.023 67.2971 137.707 67.6957 138.626H66.0317C65.7717 137.777 65.3731 137.144 64.8357 136.728C64.3157 136.312 63.7351 136.104 63.0937 136.104ZM72.1793 149C71.4686 149 70.9226 148.844 70.5413 148.532C70.1773 148.22 69.9866 147.908 69.9693 147.596L69.9433 147.154V136H71.7633V147.154C71.7633 147.657 71.8586 148.047 72.0493 148.324C72.2573 148.584 72.4566 148.723 72.6473 148.74L72.9593 148.792H73.7653V149H72.1793ZM70.0993 133.088C69.8913 132.88 69.7873 132.62 69.7873 132.308C69.7873 131.996 69.8913 131.736 70.0993 131.528C70.3073 131.303 70.5673 131.19 70.8793 131.19C71.1913 131.19 71.4513 131.303 71.6593 131.528C71.8846 131.736 71.9973 131.996 71.9973 132.308C71.9973 132.62 71.8846 132.88 71.6593 133.088C71.4513 133.296 71.1913 133.4 70.8793 133.4C70.5673 133.4 70.3073 133.296 70.0993 133.088ZM76.3226 142.656C76.3226 144.805 76.6953 146.383 77.4406 147.388C78.2033 148.393 79.2 148.896 80.4306 148.896C82.164 148.896 83.7066 148.636 85.0586 148.116L85.1366 148.298C83.75 148.835 82.1813 149.104 80.4306 149.104C78.6973 149.104 77.2846 148.584 76.1926 147.544C75.1006 146.504 74.5546 144.901 74.5546 142.734C74.5546 140.567 75.1266 138.886 76.2706 137.69C77.4146 136.494 78.8706 135.896 80.6386 135.896C82.06 135.896 83.256 136.321 84.2266 137.17C85.1973 138.019 85.6826 139.276 85.6826 140.94C85.6826 141.027 85.6826 141.113 85.6826 141.2H76.4006C76.3486 141.668 76.3226 142.153 76.3226 142.656ZM83.9146 140.992C83.8973 139.328 83.5766 138.097 82.9526 137.3C82.3286 136.503 81.5226 136.104 80.5346 136.104C79.5466 136.104 78.6626 136.537 77.8826 137.404C77.12 138.271 76.6346 139.467 76.4266 140.992H83.9146ZM91.7081 137.118V136.572C90.9281 136.884 90.2175 137.517 89.5761 138.47C88.9348 139.406 88.5968 140.29 88.5621 141.122V149H86.7421V136H88.5621V140.134C88.8395 139.129 89.3681 138.184 90.1481 137.3C90.9281 136.399 91.8121 135.931 92.8001 135.896H92.9041C93.2508 135.896 93.5368 136.017 93.7621 136.26C94.0048 136.485 94.1261 136.771 94.1261 137.118C94.1261 137.465 94.0048 137.751 93.7621 137.976C93.5368 138.201 93.2508 138.314 92.9041 138.314C92.5575 138.314 92.2715 138.201 92.0461 137.976C91.8208 137.751 91.7081 137.465 91.7081 137.118ZM95.1688 142.968C95.1688 140.715 95.7148 138.973 96.8068 137.742C97.8988 136.511 99.5368 135.896 101.721 135.896C103.333 135.896 104.971 136.182 106.635 136.754V149.312C106.617 153.437 104.815 155.5 101.227 155.5C99.2508 155.5 97.5608 154.859 96.1568 153.576L96.3388 153.42C97.8295 154.668 99.4588 155.292 101.227 155.292C103.619 155.292 104.815 153.299 104.815 149.312V146.738C104.485 147.345 103.939 147.882 103.177 148.35C102.414 148.818 101.513 149.052 100.473 149.052C96.9368 148.965 95.1688 146.937 95.1688 142.968ZM100.499 148.844C101.66 148.844 102.657 148.532 103.489 147.908C104.321 147.284 104.763 146.669 104.815 146.062V136.884C103.567 136.364 102.509 136.104 101.643 136.104C100.1 136.104 98.9388 136.711 98.1588 137.924C97.3788 139.12 96.9888 140.801 96.9888 142.968C96.9888 146.885 98.1588 148.844 100.499 148.844ZM110.346 142.656C110.346 144.805 110.719 146.383 111.464 147.388C112.227 148.393 113.223 148.896 114.454 148.896C116.187 148.896 117.73 148.636 119.082 148.116L119.16 148.298C117.773 148.835 116.205 149.104 114.454 149.104C112.721 149.104 111.308 148.584 110.216 147.544C109.124 146.504 108.578 144.901 108.578 142.734C108.578 140.567 109.15 138.886 110.294 137.69C111.438 136.494 112.894 135.896 114.662 135.896C116.083 135.896 117.279 136.321 118.25 137.17C119.221 138.019 119.706 139.276 119.706 140.94C119.706 141.027 119.706 141.113 119.706 141.2H110.424C110.372 141.668 110.346 142.153 110.346 142.656ZM117.938 140.992C117.921 139.328 117.6 138.097 116.976 137.3C116.352 136.503 115.546 136.104 114.558 136.104C113.57 136.104 112.686 136.537 111.906 137.404C111.143 138.271 110.658 139.467 110.45 140.992H117.938Z" fill="white"/>
</svg>
