<svg width="21" height="19" viewBox="0 0 21 19" fill="none" xmlns="http://www.w3.org/2000/svg">
<path d="M10.5 9.5C9.07913 9.5 7.86281 9.05938 6.851 8.17813C5.8392 7.29688 5.33329 6.2375 5.33329 5C5.33329 3.7625 5.8392 2.70313 6.851 1.82188C7.86281 0.940625 9.07913 0.5 10.5 0.5C11.9208 0.5 13.1371 0.940625 14.1489 1.82188C15.1607 2.70313 15.6666 3.7625 15.6666 5C15.6666 6.2375 15.1607 7.29688 14.1489 8.17813C13.1371 9.05938 11.9208 9.5 10.5 9.5ZM0.166626 18.5V15.35C0.166626 14.7125 0.354994 14.1266 0.73173 13.5922C1.10847 13.0578 1.60899 12.65 2.23329 12.3688C3.56802 11.7875 4.92427 11.3516 6.30204 11.0609C7.67982 10.7703 9.07913 10.625 10.5 10.625C11.9208 10.625 13.3201 10.7703 14.6979 11.0609C16.0757 11.3516 17.4319 11.7875 18.7666 12.3688C19.3909 12.65 19.8915 13.0578 20.2682 13.5922C20.6449 14.1266 20.8333 14.7125 20.8333 15.35V18.5H0.166626ZM2.74996 16.25H18.25V15.35C18.25 15.1437 18.1908 14.9562 18.0724 14.7875C17.954 14.6187 17.7979 14.4875 17.6041 14.3938C16.4416 13.8875 15.2684 13.5078 14.0843 13.2547C12.9003 13.0016 11.7055 12.875 10.5 12.875C9.2944 12.875 8.09961 13.0016 6.91558 13.2547C5.73156 13.5078 4.55829 13.8875 3.39579 14.3938C3.20204 14.4875 3.04597 14.6187 2.92756 14.7875C2.80916 14.9562 2.74996 15.1437 2.74996 15.35V16.25ZM10.5 7.25C11.2104 7.25 11.8185 7.02969 12.3244 6.58906C12.8303 6.14844 13.0833 5.61875 13.0833 5C13.0833 4.38125 12.8303 3.85156 12.3244 3.41094C11.8185 2.97031 11.2104 2.75 10.5 2.75C9.78954 2.75 9.18138 2.97031 8.67548 3.41094C8.16958 3.85156 7.91663 4.38125 7.91663 5C7.91663 5.61875 8.16958 6.14844 8.67548 6.58906C9.18138 7.02969 9.78954 7.25 10.5 7.25Z" fill="#FEF7FF"/>
</svg>
