<svg width="20" height="20" viewBox="0 0 20 20" fill="none" xmlns="http://www.w3.org/2000/svg">
<path fill-rule="evenodd" clip-rule="evenodd" d="M5.49993 8.90005C5.49993 7.02228 7.02216 5.50005 8.89993 5.50005C10.7777 5.50005 12.2999 7.02228 12.2999 8.90005C12.2999 10.7778 10.7777 12.3 8.89993 12.3C7.02216 12.3 5.49993 10.7778 5.49993 8.90005ZM8.89993 4.30005C6.35942 4.30005 4.29993 6.35954 4.29993 8.90005C4.29993 11.4406 6.35942 13.5 8.89993 13.5C9.88127 13.5 10.7908 13.1928 11.5376 12.6691L14.3342 15.4657C14.6467 15.7782 15.1532 15.7782 15.4656 15.4657C15.778 15.1533 15.778 14.6468 15.4656 14.3344L12.669 11.5378C13.1926 10.791 13.4999 9.88139 13.4999 8.90005C13.4999 6.35954 11.4404 4.30005 8.89993 4.30005Z" fill="white"/>
</svg>
