<svg width="99" height="99" viewBox="0 0 99 99" fill="none" xmlns="http://www.w3.org/2000/svg">
<path d="M99 49.5C99 76.8381 76.8381 99 49.5 99C22.1619 99 0 76.8381 0 49.5C0 22.1619 22.1619 0 49.5 0C76.8381 0 99 22.1619 99 49.5Z" fill="#D9D9D9"/>
<path d="M18.2769 87.9125C20.9556 74.7297 33.9158 64.7308 49.5 64.7308C65.0842 64.7308 78.0444 74.7297 80.7231 87.9125C72.2054 94.8444 61.338 99 49.5 99C37.662 99 26.7946 94.8444 18.2769 87.9125Z" fill="white"/>
<path d="M64.7308 42.8365C64.7308 51.4235 57.7697 58.3846 49.1827 58.3846C40.5957 58.3846 33.6346 51.4235 33.6346 42.8365C33.6346 34.2496 40.5957 27.2885 49.1827 27.2885C57.7697 27.2885 64.7308 34.2496 64.7308 42.8365Z" fill="white"/>
</svg>
